# xmcd
#
# Track frame offsets: 
#        150
#        15024
#        33311
#        57463
#        84039
#        99391
#        122344
#        141959
#        162597
#        190693
#        225413
#
# Disc length: 3223 seconds
#
# Revision: 0
# Processed by: cddbd v1.5.2PL0 Copyright (c) Steve Scherf et al.
# Submitted via: ExactAudioCopy v1.3
#
DISCID=760c950b
DTITLE=John Clifton - In The Middle Of Nowhere
DYEAR=2019
DGENRE=Harmonica Blues
TTITLE0=I'm Leaving You Baby
TTITLE1=In The Middle Of Nowhere
TTITLE2=If It Ain't Me Baby
TTITLE3=Cool Spot In Hell
TTITLE4=Poor Boy
TTITLE5=Keep It Clean
TTITLE6=Junkie Woman Blues
TTITLE7=Four Years Ago
TTITLE8=Ain't Spending No More Money
TTITLE9=So Tired I Could Cry
TTITLE10=Honky Tonk Night Time Man
EXTD=
EXTT0=
EXTT1=
EXTT2=
EXTT3=
EXTT4=
EXTT5=
EXTT6=
EXTT7=
EXTT8=
EXTT9=
EXTT10=
PLAYORDER=
